<mxfile host="65bd71144e">
    <diagram id="TFWGaAM_h4yVnnCOEa8e" name="Page-1">
        <mxGraphModel dx="1963" dy="593" grid="1" gridSize="10" guides="1" tooltips="1" connect="1" arrows="1" fold="1" page="1" pageScale="1" pageWidth="827" pageHeight="1169" math="0" shadow="0">
            <root>
                <mxCell id="0"/>
                <mxCell id="1" parent="0"/>
                <mxCell id="50" value="" style="edgeStyle=none;html=1;" parent="1" source="48" target="49" edge="1">
                    <mxGeometry relative="1" as="geometry"/>
                </mxCell>
                <mxCell id="48" value="&lt;font style=&quot;font-size: 18px;&quot;&gt;0&lt;/font&gt;" style="whiteSpace=wrap;html=1;" parent="1" vertex="1">
                    <mxGeometry x="278" y="177.5" width="110" height="60" as="geometry"/>
                </mxCell>
                <mxCell id="51" value="" style="edgeStyle=none;html=1;" parent="1" source="49" target="48" edge="1">
                    <mxGeometry relative="1" as="geometry"/>
                </mxCell>
                <mxCell id="85" value="" style="edgeStyle=none;html=1;" parent="1" source="49" target="84" edge="1">
                    <mxGeometry relative="1" as="geometry"/>
                </mxCell>
                <mxCell id="49" value="(10 , 100)" style="whiteSpace=wrap;html=1;&#10;borderRadus = 20px" parent="1" vertex="1">
                    <mxGeometry x="470" y="187.5" width="80" height="40" as="geometry"/>
                </mxCell>
                <mxCell id="53" value="2" style="whiteSpace=wrap;html=1;" parent="1" vertex="1">
                    <mxGeometry x="278" y="297.5" width="110" height="60" as="geometry"/>
                </mxCell>
                <mxCell id="56" value="" style="edgeStyle=none;html=1;" parent="1" source="57" target="59" edge="1">
                    <mxGeometry relative="1" as="geometry"/>
                </mxCell>
                <mxCell id="57" value="1" style="whiteSpace=wrap;html=1;" parent="1" vertex="1">
                    <mxGeometry x="278" y="237.5" width="110" height="60" as="geometry"/>
                </mxCell>
                <mxCell id="58" value="" style="edgeStyle=none;html=1;" parent="1" source="59" target="57" edge="1">
                    <mxGeometry relative="1" as="geometry"/>
                </mxCell>
                <mxCell id="88" value="" style="edgeStyle=none;html=1;" parent="1" source="59" target="87" edge="1">
                    <mxGeometry relative="1" as="geometry"/>
                </mxCell>
                <mxCell id="59" value="(11 , 200)" style="whiteSpace=wrap;html=1;" parent="1" vertex="1">
                    <mxGeometry x="470" y="247.5" width="80" height="40" as="geometry"/>
                </mxCell>
                <mxCell id="77" value="4" style="whiteSpace=wrap;html=1;" parent="1" vertex="1">
                    <mxGeometry x="278" y="417.5" width="110" height="60" as="geometry"/>
                </mxCell>
                <mxCell id="80" value="" style="edgeStyle=none;html=1;" parent="1" source="81" target="83" edge="1">
                    <mxGeometry relative="1" as="geometry"/>
                </mxCell>
                <mxCell id="81" value="3" style="whiteSpace=wrap;html=1;" parent="1" vertex="1">
                    <mxGeometry x="278" y="357.5" width="110" height="60" as="geometry"/>
                </mxCell>
                <mxCell id="82" value="" style="edgeStyle=none;html=1;" parent="1" source="83" target="81" edge="1">
                    <mxGeometry relative="1" as="geometry"/>
                </mxCell>
                <mxCell id="102" value="" style="edgeStyle=none;html=1;" parent="1" source="83" target="101" edge="1">
                    <mxGeometry relative="1" as="geometry"/>
                </mxCell>
                <mxCell id="83" value="(23 , 200)" style="whiteSpace=wrap;html=1;" parent="1" vertex="1">
                    <mxGeometry x="470" y="367.5" width="80" height="40" as="geometry"/>
                </mxCell>
                <mxCell id="86" value="" style="edgeStyle=none;html=1;" parent="1" source="84" target="49" edge="1">
                    <mxGeometry relative="1" as="geometry"/>
                </mxCell>
                <mxCell id="91" value="" style="edgeStyle=none;html=1;" parent="1" source="84" target="90" edge="1">
                    <mxGeometry relative="1" as="geometry"/>
                </mxCell>
                <mxCell id="84" value="(20 , 400)" style="whiteSpace=wrap;html=1;" parent="1" vertex="1">
                    <mxGeometry x="630" y="187.5" width="80" height="40" as="geometry"/>
                </mxCell>
                <mxCell id="89" value="" style="edgeStyle=none;html=1;" parent="1" source="87" target="59" edge="1">
                    <mxGeometry relative="1" as="geometry"/>
                </mxCell>
                <mxCell id="87" value="(91 , 220)" style="whiteSpace=wrap;html=1;" parent="1" vertex="1">
                    <mxGeometry x="630" y="247.5" width="80" height="40" as="geometry"/>
                </mxCell>
                <mxCell id="92" value="" style="edgeStyle=none;html=1;" parent="1" source="90" target="84" edge="1">
                    <mxGeometry relative="1" as="geometry"/>
                </mxCell>
                <mxCell id="90" value="(90 , 2220)" style="whiteSpace=wrap;html=1;" parent="1" vertex="1">
                    <mxGeometry x="790" y="187.5" width="80" height="40" as="geometry"/>
                </mxCell>
                <mxCell id="103" value="" style="edgeStyle=none;html=1;" parent="1" source="101" target="83" edge="1">
                    <mxGeometry relative="1" as="geometry"/>
                </mxCell>
                <mxCell id="105" value="" style="edgeStyle=none;html=1;" parent="1" source="101" target="104" edge="1">
                    <mxGeometry relative="1" as="geometry"/>
                </mxCell>
                <mxCell id="101" value="(33 , 400)" style="whiteSpace=wrap;html=1;" parent="1" vertex="1">
                    <mxGeometry x="630" y="367.5" width="80" height="40" as="geometry"/>
                </mxCell>
                <mxCell id="106" value="" style="edgeStyle=none;html=1;" parent="1" source="104" target="101" edge="1">
                    <mxGeometry relative="1" as="geometry"/>
                </mxCell>
                <mxCell id="104" value="&amp;nbsp;(63 , 400)&amp;nbsp;" style="whiteSpace=wrap;html=1;" parent="1" vertex="1">
                    <mxGeometry x="790" y="367.5" width="80" height="40" as="geometry"/>
                </mxCell>
                <mxCell id="116" value="" style="edgeStyle=none;html=1;fontSize=18;entryX=0;entryY=0.5;entryDx=0;entryDy=0;" parent="1" source="114" target="48" edge="1">
                    <mxGeometry relative="1" as="geometry">
                        <mxPoint x="145" y="302.5" as="targetPoint"/>
                    </mxGeometry>
                </mxCell>
                <mxCell id="117" style="edgeStyle=none;html=1;entryX=0;entryY=0.5;entryDx=0;entryDy=0;fontSize=18;" parent="1" source="114" target="57" edge="1">
                    <mxGeometry relative="1" as="geometry"/>
                </mxCell>
                <mxCell id="118" style="edgeStyle=none;html=1;entryX=0;entryY=0.5;entryDx=0;entryDy=0;fontSize=18;" parent="1" source="114" target="53" edge="1">
                    <mxGeometry relative="1" as="geometry"/>
                </mxCell>
                <mxCell id="119" style="edgeStyle=none;html=1;entryX=0;entryY=0.5;entryDx=0;entryDy=0;fontSize=18;" parent="1" source="114" target="81" edge="1">
                    <mxGeometry relative="1" as="geometry"/>
                </mxCell>
                <mxCell id="120" style="edgeStyle=none;html=1;entryX=0;entryY=0.5;entryDx=0;entryDy=0;fontSize=18;" parent="1" source="114" target="77" edge="1">
                    <mxGeometry relative="1" as="geometry"/>
                </mxCell>
                <mxCell id="134" style="edgeStyle=none;html=1;entryX=0;entryY=0.5;entryDx=0;entryDy=0;fontSize=24;" parent="1" source="114" target="131" edge="1">
                    <mxGeometry relative="1" as="geometry"/>
                </mxCell>
                <mxCell id="153" style="edgeStyle=none;html=1;entryX=0;entryY=0.5;entryDx=0;entryDy=0;" edge="1" parent="1" source="114" target="149">
                    <mxGeometry relative="1" as="geometry"/>
                </mxCell>
                <mxCell id="114" value="&lt;b style=&quot;font-size: 12px;&quot;&gt;&lt;font style=&quot;font-size: 18px;&quot;&gt;Hash Value&amp;nbsp;&lt;/font&gt;&lt;/b&gt;" style="ellipse;whiteSpace=wrap;html=1;fontSize=18;" parent="1" vertex="1">
                    <mxGeometry x="80" y="307.5" width="90" height="90" as="geometry"/>
                </mxCell>
                <mxCell id="124" value="" style="edgeStyle=none;html=1;fontSize=18;" parent="1" source="121" target="123" edge="1">
                    <mxGeometry relative="1" as="geometry"/>
                </mxCell>
                <mxCell id="121" value="KEY" style="ellipse;whiteSpace=wrap;html=1;fontSize=18;" parent="1" vertex="1">
                    <mxGeometry x="-230" y="312.5" width="80" height="80" as="geometry"/>
                </mxCell>
                <mxCell id="125" style="edgeStyle=none;html=1;fontSize=18;" parent="1" source="123" target="114" edge="1">
                    <mxGeometry relative="1" as="geometry"/>
                </mxCell>
                <mxCell id="123" value="Hash function" style="shape=parallelogram;perimeter=parallelogramPerimeter;whiteSpace=wrap;html=1;fixedSize=1;fontSize=18;" parent="1" vertex="1">
                    <mxGeometry x="-90" y="310" width="110" height="85" as="geometry"/>
                </mxCell>
                <mxCell id="130" value="" style="edgeStyle=none;html=1;" parent="1" source="131" target="133" edge="1">
                    <mxGeometry relative="1" as="geometry"/>
                </mxCell>
                <mxCell id="131" value="5" style="whiteSpace=wrap;html=1;" parent="1" vertex="1">
                    <mxGeometry x="278" y="477.5" width="110" height="60" as="geometry"/>
                </mxCell>
                <mxCell id="132" value="" style="edgeStyle=none;html=1;" parent="1" source="133" target="131" edge="1">
                    <mxGeometry relative="1" as="geometry"/>
                </mxCell>
                <mxCell id="133" value="(55 , 20)&amp;nbsp;&amp;nbsp;" style="whiteSpace=wrap;html=1;" parent="1" vertex="1">
                    <mxGeometry x="470" y="485" width="80" height="45" as="geometry"/>
                </mxCell>
                <mxCell id="142" style="edgeStyle=none;html=1;entryX=0.5;entryY=0;entryDx=0;entryDy=0;fontSize=18;" parent="1" source="141" target="48" edge="1">
                    <mxGeometry relative="1" as="geometry">
                        <Array as="points">
                            <mxPoint x="333" y="95"/>
                        </Array>
                    </mxGeometry>
                </mxCell>
                <mxCell id="141" value="&lt;font style=&quot;font-size: 18px;&quot;&gt;*linkedList&lt;/font&gt;" style="rounded=1;whiteSpace=wrap;html=1;fontSize=24;" parent="1" vertex="1">
                    <mxGeometry x="180" y="80" width="120" height="30" as="geometry"/>
                </mxCell>
                <mxCell id="147" value="" style="endArrow=none;dashed=1;html=1;dashPattern=1 3;strokeWidth=2;" parent="1" edge="1">
                    <mxGeometry width="50" height="50" relative="1" as="geometry">
                        <mxPoint x="330" y="610" as="sourcePoint"/>
                        <mxPoint x="330" y="550" as="targetPoint"/>
                    </mxGeometry>
                </mxCell>
                <mxCell id="148" value="" style="edgeStyle=none;html=1;" parent="1" source="149" target="151" edge="1">
                    <mxGeometry relative="1" as="geometry"/>
                </mxCell>
                <mxCell id="149" value="9" style="whiteSpace=wrap;html=1;" parent="1" vertex="1">
                    <mxGeometry x="278" y="620" width="110" height="60" as="geometry"/>
                </mxCell>
                <mxCell id="150" value="" style="edgeStyle=none;html=1;" parent="1" source="151" target="149" edge="1">
                    <mxGeometry relative="1" as="geometry"/>
                </mxCell>
                <mxCell id="151" value="(59 , 20)" style="whiteSpace=wrap;html=1;" parent="1" vertex="1">
                    <mxGeometry x="470" y="627.5" width="80" height="45" as="geometry"/>
                </mxCell>
                <mxCell id="152" value="&lt;font style=&quot;font-size: 18px;&quot;&gt;SIZE = 10&lt;/font&gt;" style="text;html=1;strokeColor=none;fillColor=none;align=center;verticalAlign=middle;whiteSpace=wrap;rounded=0;" parent="1" vertex="1">
                    <mxGeometry x="210" y="40" width="90" height="50" as="geometry"/>
                </mxCell>
            </root>
        </mxGraphModel>
    </diagram>
</mxfile>